<?xml version="1.0" encoding="utf-8"?>
<!-- Generator: Adobe Illustrator 21.0.0, SVG Export Plug-In . SVG Version: 6.00 Build 0)  -->
<svg version="1.1" id="Layer_1" xmlns="http://www.w3.org/2000/svg" xmlns:xlink="http://www.w3.org/1999/xlink" x="0px" y="0px"
	 viewBox="0 0 1000 958.5" style="enable-background:new 0 0 1000 958.5;" xml:space="preserve">
<style type="text/css">
	.st0{fill:#3297D3;}
</style>
<g>
	<path class="st0" d="M302.8,958.5v-186h47.3v186H302.8z"/>
	<path class="st0" d="M376.9,958.5v-186h49.2l66.6,124v-124h42.9v186h-49l-66.7-124v124H376.9L376.9,958.5z"/>
	<path class="st0" d="M695.6,958.5l65.8-186h49.1l65.9,186h-47.5l-11.1-36.2H754l-10.8,36.2H695.6z M785.8,816.6l-20.2,67.1h40.6
		L785.8,816.6z"/>
	<path class="st0" d="M123.6,958.5v-186h78.7c23,0,41.6,6.8,55.6,20.4c16.1,15.6,24.3,38.6,24.3,69c0,30.3-7.3,53.9-21.5,71
		c-14.2,17.1-33.6,25.6-58.2,25.6H123.6z M166.4,812.9v105.4H202c24.8,0,37.2-17.7,37.2-53.2c0-17.7-2.7-30.7-8.2-39
		c-5.9-8.8-15.6-13.3-29.2-13.3L166.4,812.9L166.4,812.9z"/>
	<polygon class="st0" points="708.5,772.5 659.6,772.5 605.3,845.2 605.3,772.5 562.4,772.5 562.4,958.5 605.3,958.5 605.3,885.9 
		659.6,958.5 708.5,958.5 644.7,865.6 	"/>
</g>
<g>
	<path class="st0" d="M532.7,93.5c-18,3.6-47.4,3.6-65.4,0L0,0v727l467.3-93.5c18-3.6,47.4-3.6,65.4,0L1000,727V0L532.7,93.5z
		 M208.4,626.1c0,9.2-7.4,18.1-16.3,19.9L41.7,676.2V509.4l67-13.4c9-1.8,16.4-10.8,16.4-20V251c0-9.2-7.4-18.1-16.4-20l-67-13.4
		V50.8l150.4,30.1c9,1.8,16.3,10.8,16.3,19.9V626.1L208.4,626.1z M458.5,576.1c0,9.2-7.4,18.1-16.4,19.9l-150.4,30.1V459.4l67-13.4
		c9-1.8,16.3-10.8,16.3-19.9V301c0-9.2-7.4-18.1-16.3-19.9l-67-13.4V100.9l16.4,3.3l134,26.8c9,1.8,16.4,10.8,16.4,19.9V576.1z
		 M708.2,267.6l-67,13.4c-9,1.8-16.3,10.8-16.3,19.9V426c0,9.2,7.4,18.1,16.3,19.9l67,13.4V626l-150.4-30
		c-9-1.8-16.3-10.8-16.3-19.9V150.9c0-9.2,7.4-18.1,16.3-19.9l134.1-26.8l16.4-3.3v166.7H708.2z M958.3,217.6l-67,13.4
		c-9,1.8-16.4,10.8-16.4,20v225c0,9.2,7.4,18.1,16.4,20l67,13.4v166.8l-150.4-30.1c-9-1.8-16.3-10.8-16.3-19.9V100.9
		c0-9.2,7.3-18.1,16.3-19.9l150.4-30.1L958.3,217.6L958.3,217.6z"/>
</g>
</svg>
