<?xml version="1.0" encoding="utf-8"?>
<!-- Generator: Adobe Illustrator 21.0.0, SVG Export Plug-In . SVG Version: 6.00 Build 0)  -->
<svg version="1.1" id="图层_1" xmlns="http://www.w3.org/2000/svg" xmlns:xlink="http://www.w3.org/1999/xlink" x="0px" y="0px"
	 viewBox="0 0 595 190" style="enable-background:new 0 0 595 190;" xml:space="preserve">
<style type="text/css">
	.st0{fill:#FF0045;}
	.st1{fill:#FFFFFF;}
	.st2{filter:url(#Adobe_OpacityMaskFilter);}
	.st3{mask:url(#mask-2);fill:#FFFFFF;}
	.st4{filter:url(#Adobe_OpacityMaskFilter_1_);}
	.st5{mask:url(#mask-4);fill:#FFFFFF;}
</style>
<title>Group 21</title>
<desc>Created with Sketch.</desc>
<g>
	<rect class="st0" width="595" height="190"/>
	<g id="Newswire---Dinka-Sugoi">
		<g id="Nagasaki-Stryder-1920" transform="translate(-1191.000000, -1422.000000)">
			<g id="HEADLINE" transform="translate(0.000000, 1180.000000)">
				<g id="Group-21" transform="translate(1191.000000, 242.000000)">
					<polygon id="Fill-1" class="st1" points="201.2,72.2 217.5,72.2 227.5,101.5 227.6,101.5 233.6,72.2 249.2,72.2 238,125.8 
						221.9,125.8 212.1,95.7 211.9,95.7 205.7,125.8 190.1,125.8 					"/>
					<g id="Group-20">
						<path id="Fill-2" class="st1" d="M260.7,114.2c0,1.4,0.5,2.3,1.4,2.7c1,0.4,2,0.7,3.2,0.7c2.5,0,4.3-0.8,5.5-2.5
							c1.2-1.7,2-4,2.4-6.9c-1.2,0.6-2.4,1-3.8,1.2c-1.3,0.2-2.7,0.4-4,0.5c-1.2,0.1-2.3,0.5-3.3,1.2
							C261.1,111.7,260.7,112.8,260.7,114.2L260.7,114.2z M251.1,98.2c0.6-2.6,1.5-4.7,2.7-6.4c1.2-1.6,2.7-2.9,4.4-3.9
							c1.7-0.9,3.6-1.6,5.8-1.9c2.1-0.3,4.4-0.5,6.8-0.5c1.7,0,3.7,0.1,5.9,0.3c2.2,0.2,4.2,0.6,6.1,1.3c1.9,0.7,3.5,1.7,4.8,3.1
							c1.3,1.4,1.9,3.2,1.9,5.6c0,1-0.1,2.3-0.3,3.9c-0.2,1.6-0.5,3.3-0.9,5.1c-0.3,1.8-0.7,3.6-1.2,5.5c-0.4,1.8-0.8,3.6-1.2,5.2
							c-0.3,1.6-0.6,3-0.9,4.2c-0.2,1.2-0.3,2-0.3,2.4c0,1.4,0.2,2.5,0.6,3.4H271c-0.2-0.6-0.3-1.2-0.4-1.8
							c-0.1-0.6-0.1-1.3-0.1-1.9h-0.1c-0.6,0.8-1.4,1.5-2.3,2.1c-0.9,0.6-1.9,1.1-3,1.5c-1.1,0.4-2.2,0.7-3.3,0.9
							c-1.1,0.2-2.2,0.3-3.3,0.3c-1.6,0-3.2-0.2-4.7-0.6c-1.5-0.4-2.8-1-4-1.8c-1.2-0.8-2.1-1.9-2.7-3.2c-0.7-1.3-1-2.9-1-4.8
							c0-2.5,0.5-4.7,1.4-6.4c0.9-1.7,2.2-3.1,3.8-4.1c1.6-1.1,3.6-1.8,5.9-2.3c2.3-0.5,4.8-0.8,7.6-1c1-0.1,2.2-0.1,3.5-0.1
							c1.3-0.1,2.4-0.2,3.5-0.4c1.1-0.2,2-0.6,2.7-1.2c0.7-0.6,1.1-1.5,1.1-2.7c0-1.3-0.5-2.2-1.4-2.7c-1-0.5-2-0.7-3.2-0.7
							c-1.5,0-2.7,0.3-3.8,0.9c-1,0.6-1.7,1.6-2.1,3.1H251.1z"/>
						<path id="Fill-4" class="st1" d="M315.6,96.3c-1.4,0-2.6,0.4-3.6,1.1c-1,0.7-1.8,1.6-2.4,2.7c-0.6,1.1-1,2.3-1.3,3.6
							c-0.3,1.3-0.4,2.5-0.4,3.7c0,1.7,0.4,3.2,1.3,4.4c0.8,1.2,2.1,1.8,3.8,1.8c1.7,0,3.1-0.5,4.2-1.4c1.1-0.9,1.9-2,2.5-3.2
							c0.6-1.2,1-2.5,1.2-3.7c0.2-1.2,0.3-2.2,0.3-2.9c0-0.6,0-1.2-0.1-1.9c-0.1-0.7-0.3-1.4-0.7-2c-0.4-0.6-0.9-1.1-1.6-1.5
							C318,96.5,316.9,96.3,315.6,96.3L315.6,96.3z M331.9,118.6c-0.3,1.8-0.7,3.6-1.2,5.3c-0.4,1.7-1,3.3-1.6,4.8
							c-0.7,1.5-1.5,2.9-2.5,4.1c-1,1.2-2.3,2.3-3.9,3.2c-1.6,0.9-3.5,1.6-5.7,2.1c-2.2,0.5-4.9,0.7-8,0.7c-0.7,0-1.7,0-2.9-0.1
							c-1.2-0.1-2.5-0.2-3.8-0.5c-1.3-0.2-2.7-0.7-4-1.2c-1.4-0.6-2.6-1.3-3.6-2.3c-1.1-1-1.9-2.2-2.6-3.6c-0.6-1.4-0.9-3.2-0.8-5.3
							h14.6c0,1.4,0.4,2.6,1.2,3.4c0.7,0.5,1.8,0.8,3.4,0.8c1.1,0,2-0.2,2.7-0.6c0.7-0.4,1.3-0.9,1.8-1.6c0.5-0.7,0.8-1.4,1.1-2.2
							c0.2-0.8,0.5-1.7,0.7-2.5l0.9-4.1h-0.1c-1.1,1.3-2.5,2.3-4.1,2.9c-1.6,0.7-3.3,1-5.1,1c-2.3,0-4.4-0.4-6.3-1.1
							c-1.9-0.7-3.4-1.7-4.7-3c-1.3-1.3-2.3-2.9-3-4.8c-0.7-1.9-1.1-4-1.1-6.3c0-2.7,0.4-5.5,1.2-8.2s2-5.1,3.6-7.2
							c1.6-2.1,3.5-3.8,5.8-5.1c2.3-1.3,5-1.9,8-1.9c2.4,0,4.6,0.4,6.6,1.3c2.1,0.8,3.7,2.4,4.8,4.7h0.2l1-5h14.2L331.9,118.6z"/>
						<path id="Fill-6" class="st1" d="M353.2,114.2c0,1.4,0.5,2.3,1.4,2.7c1,0.4,2,0.7,3.2,0.7c2.5,0,4.3-0.8,5.5-2.5
							c1.2-1.7,2-4,2.4-6.9c-1.2,0.6-2.4,1-3.8,1.2c-1.3,0.2-2.7,0.4-4,0.5c-1.2,0.1-2.3,0.5-3.3,1.2
							C353.7,111.7,353.2,112.8,353.2,114.2L353.2,114.2z M343.6,98.2c0.6-2.6,1.5-4.7,2.7-6.4c1.2-1.6,2.7-2.9,4.4-3.9
							c1.7-0.9,3.6-1.6,5.8-1.9c2.1-0.3,4.4-0.5,6.8-0.5c1.7,0,3.7,0.1,5.9,0.3c2.2,0.2,4.2,0.6,6.1,1.3c1.9,0.7,3.5,1.7,4.8,3.1
							c1.3,1.4,1.9,3.2,1.9,5.6c0,1-0.1,2.3-0.3,3.9c-0.2,1.6-0.5,3.3-0.9,5.1c-0.3,1.8-0.7,3.6-1.2,5.5c-0.4,1.8-0.8,3.6-1.2,5.2
							c-0.3,1.6-0.6,3-0.9,4.2c-0.2,1.2-0.3,2-0.3,2.4c0,1.4,0.2,2.5,0.6,3.4h-14.4c-0.2-0.6-0.3-1.2-0.4-1.8
							c-0.1-0.6-0.1-1.3-0.1-1.9h-0.1c-0.6,0.8-1.4,1.5-2.3,2.1c-0.9,0.6-1.9,1.1-3,1.5c-1.1,0.4-2.2,0.7-3.3,0.9
							c-1.1,0.2-2.2,0.3-3.3,0.3c-1.6,0-3.2-0.2-4.7-0.6c-1.5-0.4-2.8-1-4-1.8c-1.2-0.8-2.1-1.9-2.7-3.2c-0.7-1.3-1-2.9-1-4.8
							c0-2.5,0.5-4.7,1.4-6.4c0.9-1.7,2.2-3.1,3.8-4.1c1.6-1.1,3.6-1.8,5.9-2.3c2.3-0.5,4.8-0.8,7.6-1c1-0.1,2.2-0.1,3.5-0.1
							c1.3-0.1,2.4-0.2,3.5-0.4c1.1-0.2,2-0.6,2.7-1.2c0.7-0.6,1.1-1.5,1.1-2.7c0-1.3-0.5-2.2-1.4-2.7c-1-0.5-2-0.7-3.2-0.7
							c-1.5,0-2.7,0.3-3.8,0.9c-1,0.6-1.7,1.6-2.1,3.1H343.6z"/>
						<path id="Fill-8" class="st1" d="M398,112.6c0,1.6,0.4,2.8,1.3,3.6c0.8,0.7,2.1,1,3.9,1c1,0,1.8-0.1,2.4-0.4
							c0.6-0.3,1-0.6,1.3-1c0.3-0.4,0.5-0.7,0.6-1.1c0.1-0.4,0.1-0.7,0.1-0.9c0-0.7-0.2-1.2-0.7-1.6c-0.4-0.4-1.1-0.7-1.9-1
							c-0.8-0.3-1.8-0.5-2.9-0.7c-1.1-0.2-2.4-0.4-3.8-0.6c-0.6-0.1-1.5-0.3-2.7-0.6c-1.2-0.3-2.3-0.8-3.5-1.5c-1.2-0.7-2.2-1.7-3-3
							c-0.8-1.3-1.3-3-1.3-5.1c0-2.8,0.6-5.1,1.7-6.9c1.1-1.8,2.6-3.3,4.4-4.4c1.8-1.1,3.9-1.9,6.2-2.3c2.3-0.4,4.6-0.6,6.9-0.6
							c2,0,4.1,0.1,6.2,0.4c2.1,0.3,4,0.9,5.8,1.8c1.7,0.9,3.1,2.1,4.1,3.7c1,1.6,1.4,3.7,1.2,6.3h-13.1c0.1-1.4-0.2-2.5-1-3.1
							c-0.5-0.4-1-0.7-1.6-0.8c-0.6-0.1-1.2-0.2-1.8-0.2c-1,0-1.9,0.2-2.8,0.7c-0.9,0.5-1.3,1.3-1.3,2.4c0,1,0.3,1.8,0.9,2.2
							c0.6,0.4,1.4,0.7,2.4,0.7c2.7,0.4,5.1,0.9,7.2,1.4c2.1,0.5,3.8,1.2,5.1,2.1c1.4,0.9,2.4,2,3,3.4c0.7,1.4,1,3.1,1,5.1
							c0,2.2-0.5,4.3-1.4,6.1c-0.9,1.8-2.2,3.3-3.9,4.5c-1.7,1.2-3.8,2.2-6.2,2.8c-2.4,0.7-5.1,1-8.1,1c-2.1,0-4.2-0.2-6.4-0.5
							c-2.2-0.3-4.2-1-6-2c-1.8-1-3.2-2.4-4.4-4.2c-1.1-1.8-1.7-4.1-1.6-7.1H398z"/>
						<path id="Fill-10" class="st1" d="M440.2,114.2c0,1.4,0.5,2.3,1.4,2.7c1,0.4,2,0.7,3.2,0.7c2.5,0,4.3-0.8,5.5-2.5
							c1.2-1.7,2-4,2.4-6.9c-1.2,0.6-2.4,1-3.8,1.2c-1.3,0.2-2.7,0.4-4,0.5c-1.2,0.1-2.3,0.5-3.3,1.2
							C440.7,111.7,440.2,112.8,440.2,114.2L440.2,114.2z M430.7,98.2c0.6-2.6,1.5-4.7,2.7-6.4c1.2-1.6,2.7-2.9,4.4-3.9
							c1.7-0.9,3.6-1.6,5.8-1.9c2.1-0.3,4.4-0.5,6.8-0.5c1.7,0,3.7,0.1,5.9,0.3c2.2,0.2,4.2,0.6,6.1,1.3c1.9,0.7,3.5,1.7,4.8,3.1
							c1.3,1.4,1.9,3.2,1.9,5.6c0,1-0.1,2.3-0.3,3.9c-0.2,1.6-0.5,3.3-0.9,5.1c-0.3,1.8-0.7,3.6-1.2,5.5c-0.4,1.8-0.8,3.6-1.2,5.2
							c-0.3,1.6-0.6,3-0.9,4.2c-0.2,1.2-0.3,2-0.3,2.4c0,1.4,0.2,2.5,0.6,3.4h-14.4c-0.2-0.6-0.3-1.2-0.4-1.8
							c-0.1-0.6-0.1-1.3-0.1-1.9h-0.2c-0.6,0.8-1.4,1.5-2.3,2.1c-0.9,0.6-1.9,1.1-3,1.5c-1.1,0.4-2.2,0.7-3.3,0.9
							c-1.1,0.2-2.2,0.3-3.3,0.3c-1.6,0-3.2-0.2-4.7-0.6c-1.5-0.4-2.8-1-4-1.8c-1.2-0.8-2.1-1.9-2.7-3.2c-0.7-1.3-1-2.9-1-4.8
							c0-2.5,0.5-4.7,1.4-6.4c0.9-1.7,2.2-3.1,3.8-4.1c1.6-1.1,3.6-1.8,5.9-2.3c2.3-0.5,4.8-0.8,7.6-1c1-0.1,2.2-0.1,3.5-0.1
							c1.3-0.1,2.4-0.2,3.5-0.4c1.1-0.2,2-0.6,2.7-1.2c0.7-0.6,1.1-1.5,1.1-2.7c0-1.3-0.5-2.2-1.4-2.7c-1-0.5-2-0.7-3.2-0.7
							c-1.5,0-2.7,0.3-3.8,0.9c-1,0.6-1.7,1.6-2.1,3.1H430.7z"/>
						<polygon id="Fill-12" class="st1" points="482.7,71.9 497.4,71.9 492.1,97.9 492.3,97.9 503.1,86.5 520.7,86.5 503.4,102.1 
							513.2,125.4 497.3,125.4 492.1,111.3 488.7,114.3 486.4,125.4 471.7,125.4 						"/>
						<g id="Group-16" transform="translate(478.687500, 45.139535)">
							<g id="Clip-15">
							</g>
							<defs>
								<filter id="Adobe_OpacityMaskFilter" filterUnits="userSpaceOnUse" x="37.9" y="26.7" width="25.7" height="53.5">
									<feColorMatrix  type="matrix" values="1 0 0 0 0  0 1 0 0 0  0 0 1 0 0  0 0 0 1 0"/>
								</filter>
							</defs>
							<mask maskUnits="userSpaceOnUse" x="37.9" y="26.7" width="25.7" height="53.5" id="mask-2">
								<g class="st2">
									<polygon id="path-1" class="st1" points="37.9,26.7 63.6,26.7 63.6,80.2 37.9,80.2 									"/>
								</g>
							</mask>
							<path id="Fill-14" class="st3" d="M61.4,37.1H46.7l2.2-10.4h14.7L61.4,37.1z M45.9,41.3h14.7l-8,38.9H37.9L45.9,41.3z"/>
						</g>
						<g id="Group-19">
							<g id="Clip-18">
							</g>
							<defs>
								<filter id="Adobe_OpacityMaskFilter_1_" filterUnits="userSpaceOnUse" x="52.7" y="27.6" width="124" height="119.6">
									<feColorMatrix  type="matrix" values="1 0 0 0 0  0 1 0 0 0  0 0 1 0 0  0 0 0 1 0"/>
								</filter>
							</defs>
							<mask maskUnits="userSpaceOnUse" x="52.7" y="27.6" width="124" height="119.6" id="mask-4">
								<g class="st4">
									<polygon id="path-3" class="st1" points="52.7,27.6 176.7,27.6 176.7,147.2 52.7,147.2 									"/>
								</g>
							</mask>
							<path id="Fill-17" class="st5" d="M134.1,133.9l-17.4-14.4l-0.3-0.9c-0.7-2.4,0-5.3,1.9-7.5l2.6,4.6l4.1-2.7l-2.6-4.6
								c0.8-0.3,1.6-0.4,2.4-0.4c1.9,0,3.5,0.7,4.7,2l0.6,0.7L134.1,133.9z M113.5,117l-5.2-4.3l-6.4,4.2c2-3.1,2.2-6.9,0.4-9.7
								l0.8-0.9l2.7,2.2l3.3-3.7l-0.1-0.1c0.2,0,0.4,0,0.6,0c0.2,0,0.3,0,0.5,0l2.2,3.9l3.4-2.2l0.4,0.7
								C113.3,109.9,112.3,113.8,113.5,117L113.5,117z M99.7,87l-0.8-0.3c0.7-3.5-0.7-6.7-3.5-8.4h6.9l3.4-7.2
								c0,3.5,2.1,6.5,5.4,7.5l-0.2,1l-3.8,0l-0.7,4.4c-0.4,0.2-0.8,0.5-1.1,0.7l-4-1.4L99.7,87z M96.9,101.2l2.7,2.2l-0.8,0.9
								c-1-0.4-2-0.6-3.1-0.6c-2.3,0-4.6,0.9-6.5,2.4l3.1-6.6L87,95.1c0.6,0.1,1.2,0.2,1.8,0.2c3,0,6.1-1.6,8.1-4.1l0.8,0.3
								l-1.7,3.6l4.1,1.4c0,0.3,0.1,0.7,0.2,1L96.9,101.2z M98.4,118.4l-0.8,1.3l-21.4,14.2l10.9-23.2l1-0.8c1.6-1.3,3.5-2,5.4-2
								c0.7,0,1.4,0.1,2,0.3l-4,4.5l3.5,2.9l4-4.6C100.1,113.2,99.9,116,98.4,118.4L98.4,118.4z M85.9,92.7c-0.3,0-0.6,0-0.9-0.1
								l-1.3-0.2L66.6,78.4h24.5l0.7,0.4c2.1,1.3,3.1,3.8,2.7,6.4l-5.1-1.8l-2.1,4.4l5.1,1.8C90.7,91.6,88.3,92.7,85.9,92.7
								L85.9,92.7z M118.5,44l4,23.3l-0.3,0.8c-0.9,2.6-3.1,4.8-5.7,5.6l0.8-5.6l-4.7,0l-0.9,5.7c-2.4-0.8-3.9-2.9-4-5.5l-0.1-1.5
								L118.5,44z M124.4,78.4h7.1c-3.3,1.6-5.7,4.9-6,8.5l-1,0.3l-0.6-3.6l-4.5,1.4c-0.2-0.2-0.5-0.5-0.8-0.7l0.7-4.5l-3.8,0
								l0.1-0.9c3.4-0.9,6.3-3.6,7.5-6.9L124.4,78.4z M135.2,79l1.1-0.6h23.8l-21.7,14.3l-1.2,0.1c-0.3,0-0.6,0.1-0.9,0.1
								c-2.3,0-4.3-1.1-5.4-3l5.6-1.7l-0.8-4.6l-5.6,1.7C130.9,82.7,132.7,80.2,135.2,79L135.2,79z M128.1,99.6l1.2,6.9
								c-1.4-1.7-3.6-2.7-6-2.7c-1.1,0-2.2,0.2-3.2,0.6l-0.4-0.7l3.4-2.2l-2.2-3.8c0.2-0.3,0.3-0.6,0.5-0.9l0,0.1l4.6-1.4l-0.6-3.6
								l1.1-0.3c1.3,2.5,3.9,4.1,7,4.1c0.3,0,0.7,0,1-0.1L128.1,99.6z M176.7,73.2h-47.8L121,27.6L99.6,73.2H52.7L86.5,101
								l-21.7,46.2l43.2-28.6l33.6,27.7l-7.8-44.8L176.7,73.2z"/>
						</g>
					</g>
				</g>
			</g>
		</g>
	</g>
</g>
</svg>
